<?xml version="1.0" encoding="iso-8859-1"?>
<!-- Generator: Adobe Illustrator 17.1.0, SVG Export Plug-In . SVG Version: 6.00 Build 0)  -->
<!DOCTYPE svg PUBLIC "-//W3C//DTD SVG 1.1//EN" "http://www.w3.org/Graphics/SVG/1.1/DTD/svg11.dtd">
<svg version="1.1" id="Capa_1" xmlns="http://www.w3.org/2000/svg" xmlns:xlink="http://www.w3.org/1999/xlink" x="0px" y="0px"
	 viewBox="0 0 475.04 475.04" style="enable-background:new 0 0 475.04 475.04;" xml:space="preserve">
<path d="M474.11,242.115c-1.318-2.396-3.836-3.883-6.57-3.883H344.866l-31.257-72.934c-4.341-10.125-14.262-16.667-25.276-16.667
	H257.82v-40.033c0-4.142-3.357-7.5-7.5-7.5s-7.5,3.358-7.5,7.5v40.033h-43.699c-4.142,0-7.5,3.358-7.5,7.5l0,18.1H166.92
	l-11.634-60.706c-0.677-3.534-3.768-6.088-7.366-6.088h-64c-2.236,0-4.356,0.998-5.781,2.722s-2.006,3.994-1.585,6.19l11.092,57.882
	H67.463c-3.732,0-6.897,2.745-7.425,6.439l-8.223,57.561H7.5c-2.258,0-4.396,1.018-5.82,2.77s-1.983,4.053-1.521,6.264l8.012,38.348
	c0.004,0.022,0.009,0.043,0.013,0.065l12.208,58.432c3.611,17.285,19.049,29.831,36.707,29.831h312.001
	c16.373,0,31.376-8.259,40.134-22.092l64.642-102.105C475.339,247.434,475.428,244.511,474.11,242.115z M141.721,122.438
	l1.854,9.675c-0.074-0.002-0.147-0.011-0.222-0.011H96.72c-0.632,0-1.243,0.087-1.83,0.234l-1.897-9.898H141.721z M97.72,147.102
	h45.633c1.058,0,2.063-0.221,2.976-0.617l5.317,27.747H102.92L97.72,147.102z M396.561,343.825
	c-5.992,9.465-16.257,15.115-27.46,15.115H57.1c-10.595,0-19.857-7.527-22.024-17.898l-10.323-49.411H403.92
	c4.143,0,7.5-3.358,7.5-7.5s-3.357-7.5-7.5-7.5H21.618l-4.889-23.4h41.586c0.005,0,0.009,0.001,0.014,0.001
	c0.007,0,0.014-0.001,0.021-0.001h249.669c4.143,0,7.5-3.358,7.5-7.5s-3.357-7.5-7.5-7.5H66.968l7-49h22.637
	c0.014,0,0.028,0,0.041,0h64.033c0.011,0,0.022,0.001,0.033,0.001c0.01,0,0.021-0.001,0.031-0.001h38.377c4.142,0,7.5-3.358,7.5-7.5
	l0-18.1h81.712c5.007,0,9.517,2.974,11.489,7.576l6.711,15.659h-70.142c-6.474,0-11.241,6.057-9.72,12.349l2.666,11.029
	c1.085,4.489,5.102,7.651,9.72,7.651h80.774l13.167,30.723c0.141,0.337,0.311,0.658,0.498,0.968
	c0.038,0.063,0.075,0.127,0.115,0.188c0.172,0.268,0.358,0.527,0.563,0.771c0.048,0.057,0.1,0.108,0.149,0.164
	c0.171,0.192,0.351,0.374,0.54,0.547c0.065,0.059,0.127,0.12,0.194,0.176c0.236,0.202,0.484,0.39,0.744,0.562
	c0.048,0.031,0.097,0.058,0.145,0.088c0.238,0.149,0.486,0.285,0.741,0.407c0.054,0.026,0.107,0.053,0.161,0.078
	c0.297,0.134,0.603,0.251,0.92,0.346c0.033,0.01,0.066,0.016,0.099,0.025c0.273,0.078,0.553,0.138,0.837,0.185
	c0.086,0.014,0.171,0.028,0.257,0.039c0.291,0.037,0.585,0.061,0.885,0.064c0.026,0,0.052,0.006,0.079,0.006
	c0.013,0,0.026-0.002,0.039-0.002h113.951L396.561,343.825z"/>
<g>
</g>
<g>
</g>
<g>
</g>
<g>
</g>
<g>
</g>
<g>
</g>
<g>
</g>
<g>
</g>
<g>
</g>
<g>
</g>
<g>
</g>
<g>
</g>
<g>
</g>
<g>
</g>
<g>
</g>
</svg>
