<?xml version="1.0" encoding="iso-8859-1"?>
<!-- Generator: Adobe Illustrator 19.0.0, SVG Export Plug-In . SVG Version: 6.00 Build 0)  -->
<svg version="1.1" id="Capa_1" xmlns="http://www.w3.org/2000/svg" xmlns:xlink="http://www.w3.org/1999/xlink" x="0px" y="0px"
	 viewBox="0 0 463 463" style="enable-background:new 0 0 463 463;" xml:space="preserve">
<g>
	<path d="M463,323.5v-64c0-12.958-10.542-23.5-23.5-23.5H431v-72.5c0-4.142-3.357-7.5-7.5-7.5s-7.5,3.358-7.5,7.5V236h-17v-89h8.5
		c4.143,0,7.5-3.358,7.5-7.5s-3.357-7.5-7.5-7.5h-88c-12.958,0-23.5,10.542-23.5,23.5v88V300h-17V115h0.5c4.143,0,7.5-3.358,7.5-7.5
		s-3.357-7.5-7.5-7.5H7.5c-4.143,0-7.5,3.358-7.5,7.5s3.357,7.5,7.5,7.5H8v208.5c0,4.142,3.357,7.5,7.5,7.5h10.097
		C24.57,333.638,24,336.503,24,339.5s0.57,5.862,1.597,8.5H7.5c-4.143,0-7.5,3.358-7.5,7.5s3.357,7.5,7.5,7.5h448
		c4.143,0,7.5-3.358,7.5-7.5s-3.357-7.5-7.5-7.5h-10.097c1.027-2.638,1.597-5.503,1.597-8.5s-0.57-5.862-1.597-8.5H455.5
		C459.643,331,463,327.642,463,323.5z M311,155.5c0-4.687,3.813-8.5,8.5-8.5H384v89h-73V155.5z M296,315v8.5
		c0,4.142,3.357,7.5,7.5,7.5h10.097c-1.027,2.638-1.597,5.503-1.597,8.5s0.57,5.862,1.597,8.5h-52.195
		c1.027-2.638,1.597-5.503,1.597-8.5s-0.57-5.862-1.597-8.5H271.5c4.143,0,7.5-3.358,7.5-7.5V315H296z M344,339.5
		c0,4.687-3.813,8.5-8.5,8.5s-8.5-3.813-8.5-8.5s3.813-8.5,8.5-8.5S344,334.813,344,339.5z M357.403,331h44.195
		c-1.027,2.638-1.597,5.503-1.597,8.5s0.57,5.862,1.597,8.5h-44.195c1.027-2.638,1.597-5.503,1.597-8.5S358.43,333.638,357.403,331z
		 M71,339.5c0-4.687,3.813-8.5,8.5-8.5s8.5,3.813,8.5,8.5s-3.813,8.5-8.5,8.5S71,344.187,71,339.5z M101.403,331h84.195
		c-1.027,2.638-1.597,5.503-1.597,8.5s0.57,5.862,1.597,8.5h-84.195c1.027-2.638,1.597-5.503,1.597-8.5S102.43,333.638,101.403,331z
		 M199,339.5c0-4.687,3.813-8.5,8.5-8.5s8.5,3.813,8.5,8.5s-3.813,8.5-8.5,8.5S199,344.187,199,339.5z M231,339.5
		c0-4.687,3.813-8.5,8.5-8.5s8.5,3.813,8.5,8.5s-3.813,8.5-8.5,8.5S231,344.187,231,339.5z M111,236v-89h65v89H111z M23,236v-89h73
		v89H23z M191,147h73v89h-73V147z M264,115v17H23v-17H264z M23,251h241v65H23V251z M39,339.5c0-4.687,3.813-8.5,8.5-8.5
		s8.5,3.813,8.5,8.5s-3.813,8.5-8.5,8.5S39,344.187,39,339.5z M432,339.5c0,4.687-3.813,8.5-8.5,8.5s-8.5-3.813-8.5-8.5
		s3.813-8.5,8.5-8.5S432,334.813,432,339.5z M448,316H311v-65h80.5h48c4.687,0,8.5,3.813,8.5,8.5V316z"/>
	<path d="M239.5,299c4.143,0,7.5-3.358,7.5-7.5s-3.357-7.5-7.5-7.5h-192c-4.143,0-7.5,3.358-7.5,7.5s3.357,7.5,7.5,7.5H239.5z"/>
	<path d="M423.5,284h-88c-4.143,0-7.5,3.358-7.5,7.5s3.357,7.5,7.5,7.5h88c4.143,0,7.5-3.358,7.5-7.5S427.643,284,423.5,284z"/>
</g>
<g>
</g>
<g>
</g>
<g>
</g>
<g>
</g>
<g>
</g>
<g>
</g>
<g>
</g>
<g>
</g>
<g>
</g>
<g>
</g>
<g>
</g>
<g>
</g>
<g>
</g>
<g>
</g>
<g>
</g>
</svg>
